<?xml version="1.0" encoding="UTF-8" standalone="no"?>
<svg
   xmlns:dc="http://purl.org/dc/elements/1.1/"
   xmlns:cc="http://creativecommons.org/ns#"
   xmlns:rdf="http://www.w3.org/1999/02/22-rdf-syntax-ns#"
   xmlns:svg="http://www.w3.org/2000/svg"
   xmlns="http://www.w3.org/2000/svg"
   xmlns:sodipodi="http://sodipodi.sourceforge.net/DTD/sodipodi-0.dtd"
   xmlns:inkscape="http://www.inkscape.org/namespaces/inkscape"
   width="300"
   height="300"
   viewBox="0 0 300 300"
   version="1.1"
   id="svg4663"
   sodipodi:docname="Laravel.svg"
   inkscape:version="0.92.4 (5da689c313, 2019-01-14)">
  <metadata
     id="metadata4669">
    <rdf:RDF>
      <cc:Work
         rdf:about="">
        <dc:format>image/svg+xml</dc:format>
        <dc:type
           rdf:resource="http://purl.org/dc/dcmitype/StillImage" />
        <dc:title>Logomark</dc:title>
      </cc:Work>
    </rdf:RDF>
  </metadata>
  <defs
     id="defs4667" />
  <sodipodi:namedview
     pagecolor="#ffffff"
     bordercolor="#666666"
     borderopacity="1"
     objecttolerance="10"
     gridtolerance="10"
     guidetolerance="10"
     inkscape:pageopacity="0"
     inkscape:pageshadow="2"
     inkscape:window-width="1920"
     inkscape:window-height="973"
     id="namedview4665"
     showgrid="false"
     inkscape:zoom="1.6045885"
     inkscape:cx="133.08478"
     inkscape:cy="123.25402"
     inkscape:window-x="0"
     inkscape:window-y="0"
     inkscape:window-maximized="1"
     inkscape:current-layer="svg4663" />
  <title
     id="title4659">Logomark</title>
  <path
     d="m 278.81751,77.306851 a 4.202323,4.202323 0 0 1 0.14556,1.08565 v 56.993679 a 4.1555731,4.1555731 0 0 1 -2.08818,3.60496 l -47.83596,27.54106 v 54.58863 c 0,1.48562 -0.78955,2.85698 -2.07778,3.60497 l -99.85323,57.48198 c -0.22855,0.12992 -0.47789,0.21304 -0.72722,0.3013 -0.0935,0.0311 -0.1818,0.0884 -0.2805,0.11435 a 4.1815454,4.1815454 0 0 1 -2.12974,0 c -0.11428,-0.0311 -0.21818,-0.0937 -0.32725,-0.13496 -0.22854,-0.0831 -0.4675,-0.15594 -0.68567,-0.28051 L 23.125103,224.72579 a 4.1607676,4.1607676 0 0 1 -2.088178,-3.60498 V 50.139801 c 0,-0.37401 0.05195,-0.73762 0.145451,-1.09085 0.03117,-0.11946 0.103895,-0.22854 0.145449,-0.34802 0.07791,-0.21818 0.150636,-0.44153 0.264918,-0.64412 0.07791,-0.13506 0.192198,-0.24415 0.285694,-0.36881 0.119478,-0.1662 0.228547,-0.33763 0.368809,-0.48308 0.119478,-0.11946 0.275306,-0.20778 0.410362,-0.31167 0.150637,-0.12466 0.285696,-0.25972 0.457114,-0.35842 h 0.0052 l 49.918813,-28.74098 a 4.1659619,4.1659619 0 0 1 4.155575,0 l 49.91877,28.74098 h 0.0103 c 0.16623,0.1039 0.30647,0.23376 0.45711,0.35323 0.13507,0.10388 0.2857,0.19737 0.40517,0.31167 0.14545,0.15063 0.24934,0.32205 0.37401,0.48827 0.0883,0.12466 0.20777,0.23376 0.28049,0.36881 0.11948,0.20778 0.18702,0.42595 0.27012,0.64412 0.0416,0.11947 0.11428,0.22854 0.14544,0.35322 a 4.202323,4.202323 0 0 1 0.14545,1.08565 V 156.93283 l 41.59737,-23.95169 V 78.387301 c 0,-0.36361 0.0519,-0.73242 0.14544,-1.08045 0.0364,-0.12466 0.1039,-0.23376 0.14545,-0.35322 0.0831,-0.21818 0.15585,-0.44153 0.27011,-0.64412 0.0779,-0.13504 0.19221,-0.24412 0.2805,-0.3688 0.12466,-0.16621 0.22855,-0.33764 0.374,-0.48309 0.11947,-0.11947 0.27011,-0.20777 0.40517,-0.31167 0.15585,-0.12466 0.29089,-0.25972 0.45711,-0.35841 h 0.005 l 49.92399,-28.74098 a 4.1607676,4.1607676 0 0 1 4.15557,0 l 49.91881,28.74098 c 0.17648,0.10388 0.31166,0.23376 0.46751,0.35322 0.13005,0.1039 0.28048,0.19737 0.39997,0.31167 0.14557,0.15063 0.24933,0.32206 0.37402,0.48828 0.0937,0.12466 0.2076,0.23376 0.28048,0.3688 0.11958,0.20259 0.18686,0.42595 0.27011,0.64412 0.0467,0.11947 0.11434,0.22855 0.14555,0.35322 z m -8.1761,55.674289 V 85.586831 l -17.469,10.056485 -24.13348,13.895204 v 47.39431 l 41.60769,-23.95169 z m -49.91881,85.73467 v -47.42549 l -23.73872,13.55757 -67.78778,38.68838 v 47.87222 z M 29.358459,57.334131 V 218.71581 l 91.516101,52.68748 v -47.86184 l -47.809861,-27.05796 -0.01557,-0.01 -0.02076,-0.01 c -0.161038,-0.0936 -0.296082,-0.22864 -0.446725,-0.3428 -0.129874,-0.10397 -0.280501,-0.18695 -0.394776,-0.3013 l -0.01038,-0.0149 c -0.135065,-0.1299 -0.228547,-0.29088 -0.342836,-0.43633 -0.103899,-0.14025 -0.228547,-0.25974 -0.311668,-0.40516 l -0.0052,-0.0149 c -0.0935,-0.15583 -0.150635,-0.34283 -0.218179,-0.51945 -0.06754,-0.15582 -0.155849,-0.30129 -0.197372,-0.46751 v -0.005 c -0.05193,-0.19731 -0.06233,-0.40517 -0.08311,-0.60776 -0.02076,-0.15582 -0.06233,-0.31166 -0.06233,-0.46751 v -0.01 -111.582099 l -24.12833,-13.90006 -17.468991,-10.0461 z m 45.763251,-31.13563 -41.592093,23.9413 41.581705,23.94129 41.586888,-23.94649 -41.586888,-23.9361 z m 21.629757,149.413619 24.128293,-13.89 V 57.334131 l -17.46899,10.05649 -24.133487,13.89519 V 185.6738 Z M 224.88336,54.451201 l -41.5869,23.9413 41.5869,23.941289 41.5817,-23.946489 z M 220.7226,109.53852 196.5891,95.643316 179.12011,85.586831 v 47.394309 l 24.1283,13.89 17.47419,10.06169 z m -95.69247,106.80342 60.99862,-34.8237 30.49153,-17.40147 -41.55574,-23.92571 -47.84623,27.54625 -43.60754,25.10486 z"
     id="path4661"
     inkscape:connector-curvature="0"
     style="fill:#ff2d20;fill-rule:evenodd;stroke-width:5.19446659" />
</svg>
